<svg xmlns="http://www.w3.org/2000/svg" height="841.89" width="595.276"><path style="fill:#ffa5ba;fill-rule:evenodd;stroke:#1b1918;stroke-width:.21600001;stroke-linecap:butt;stroke-linejoin:miter;stroke-dasharray:none" d="M-354.719 559.025c.969-.081 1.555.252 1.759.999l-5.228 29.046h-22.5c-3.594-18.731-5.263-28.075-5.268-28.17-.057-1.078.417-1.695 1.675-1.875h29.562z"/><path style="fill:#fff;fill-rule:evenodd;stroke:#1b1918;stroke-width:.21600001;stroke-linecap:butt;stroke-linejoin:miter;stroke-dasharray:none" d="M-382.187 563.138c0 5.633 5.554 10.199 12.406 10.199s12.406-4.566 12.406-10.199c-8.27-.069-16.542-.069-24.812 0z"/><path style="fill:#fff;fill-rule:evenodd;stroke:#1b1918;stroke-width:.21600001;stroke-linecap:butt;stroke-linejoin:miter;stroke-dasharray:none" d="M-380.844 573.118c7.75 4.17 15.063 4.13 21.938-.125l-2.563 13.156h-16.525l-2.85-13.031z"/><path style="fill:#ffa5ba;fill-rule:evenodd;stroke:#1b1918;stroke-width:.21600001;stroke-linecap:butt;stroke-linejoin:miter;stroke-dasharray:none" d="m-369.546 558.118.088-.003.087.003v-.007c5.035-.214 3.581-3.368 4.303-5.767.735-1.404 2.045-1.85 3.312-.594 1.978 1.96 5.722.097 6.531-2.625.45-1.515-.154-3.138-1.72-4.844 1.323-1.767 1.547-3.502.673-5.204h-26.372c-.874 1.702-.65 3.437.672 5.204-1.566 1.706-2.17 3.33-1.72 4.844.81 2.722 4.554 4.585 6.532 2.625 1.267-1.256 2.576-.81 3.312.594.722 2.399-.732 5.552 4.303 5.767v.007z"/><path style="fill:#fff;fill-rule:evenodd;stroke:#1b1918;stroke-width:.21600001;stroke-linecap:butt;stroke-linejoin:miter;stroke-dasharray:none" d="M-369.184 554.722v.013a1.127 1.127 0 0 1-.142.002 1.345 1.345 0 0 1-.141-.002v-.013c-.824-.148-1.262-1.284-1.07-3.362.057-.628.026-1.175-.094-1.64-.17-.403-.51-.648-1.015-.735a4.868 4.868 0 0 1-2.89-1.25c-.506-.618-1.167-.759-1.985-.422-.522.272-.98.626-1.375 1.063-.736.818-1.335.969-1.797.453-.4-.472-.196-1.066.61-1.781 1.158-.864 1.6-1.56 1.325-2.087-.063-.41-.287-.754-.672-1.03-.585-.414-.663-.872-.235-1.376.363-.264.894-.384 1.594-.36l7.668.016h.099l7.668-.015c.7-.025 1.231.095 1.593.36.429.503.35.961-.234 1.374-.385.277-.609.621-.673 1.031-.274.527.168 1.223 1.326 2.087.806.715 1.01 1.309.61 1.781-.462.516-1.061.365-1.797-.453a4.868 4.868 0 0 0-1.375-1.063c-.818-.337-1.48-.196-1.984.422a4.868 4.868 0 0 1-2.891 1.25c-.506.087-.845.332-1.016.735-.119.465-.15 1.012-.093 1.64.192 2.076-.2 3.212-1.014 3.362z"/></svg>