<svg xmlns="http://www.w3.org/2000/svg" height="841.89" width="595.276"><path style="fill:none" d="M1424.054 352.623v9.15h2.25v-9.15z"/><path style="fill:#ffa5ba;fill-rule:evenodd" d="M1419.687 349.927c.744.225 1.074.724.992 1.496v13.748h8.925v-13.148c-.093-.727.194-1.215.862-1.462 9.46-6.617 15.711-12.955 16.71-19.443 1.408-9.146-4.34-17.619-14.57-15.94-2.504.41-4.57 1.633-5.85 3.829-1.405 2.408-2.61 1.482-3.843-.693-1.633-2.88-5.07-3.612-8.738-3.338-13.398 1.001-13.654 17.166-5.7 26.138 3.274 3.693 7.19 6.465 11.212 8.813z"/><path style="fill:#fff;fill-rule:evenodd" d="M1407.65 332.434c-.555-.382-.88-.87-.975-1.463-.898-7.24.915-11.365 5.437-12.375 2.93-.814 5.643-.114 8.138 2.1 1.995 2.248 3.745 3.26 5.25 3.038 1.692-.227 3.342-1.577 4.95-4.05 2.167-2.433 5.305-2.495 9.413-.188 3.864 2.718 5.152 6.356 3.862 10.913-.622 1.726-1.122 2.313-1.5 1.762-.519-.163-.769-.8-.75-1.912-.715-2.856-2.765-3.919-6.15-3.188-2.118.843-3.106 2.73-2.962 5.663.115 1.845-.222 2.757-1.013 2.737-1.118.198-1.667-.765-1.65-2.887.044-3.326-1.169-5.175-3.637-5.55-2.595-.391-4.232.721-4.913 3.337a32.135 32.135 0 0 0-.412 3.45c-.108 1.289-.645 1.851-1.613 1.688-.856-.069-1.206-1.018-1.05-2.85.283-2.875-.73-4.65-3.038-5.325-2.154-.65-4.004-.15-5.55 1.5-.481.634-.644 1.572-.487 2.812-.083.978-.533 1.24-1.35.788z"/><path style="fill:#fff;fill-rule:evenodd" d="M1408.945 336.09c2.358 3.984 9.663 9.826 13.5 12.3 2.047 1.32 3.938 1.113 5.887-.375 1.18-.9 15.37-11.195 12.094-12.694-1.02-.55-1.701-1.613-2.044-3.187-.24-1.535-.817-2.207-1.724-1.988-1.025.248-1.435 1.22-1.237 2.888.514 2.267-.183 3.683-1.557 4.65-3.288 2.313-7.416.111-7.537-4.2.03-2.083-.295-3.095-1.144-3.263-.874-.025-1.026.655-.919 2.794.114 2.269-.716 4.076-3.225 5.175-2.031.808-3.931.133-5.7-2.025-.52-.97-.664-2.314-.431-4.031.212-1.39-.308-1.982-1.557-2.044-2.339-.118.209 3.633-3.018 4.537-1.389.39-1.87.806-1.388 1.463zM1424.063 353.062v9.407h2.78v-9.407z"/></svg>