<svg xmlns="http://www.w3.org/2000/svg" height="841.89" width="595.276"><path style="fill:none;stroke:#1b1918;stroke-width:.21600001;stroke-linecap:butt;stroke-linejoin:miter;stroke-dasharray:none" d="M-238.76 580.187v9.15h2.25v-9.15z"/><path style="fill:#ffa5ba;fill-rule:evenodd;stroke:#1b1918;stroke-width:.21600001;stroke-linecap:butt;stroke-linejoin:miter;stroke-dasharray:none" d="M-243.126 577.491c.744.226 1.074.724.992 1.497v13.747h8.925v-13.148c-.093-.727.195-1.215.862-1.461 9.46-6.618 15.711-12.956 16.71-19.444 1.408-9.146-4.34-17.619-14.57-15.94-2.504.41-4.57 1.633-5.85 3.83-1.404 2.407-2.61 1.48-3.843-.694-1.633-2.88-5.07-3.611-8.738-3.337-13.398 1-13.654 17.165-5.7 26.137 3.274 3.693 7.19 6.465 11.212 8.813z"/><path style="fill:#fff;fill-rule:evenodd;stroke:#1b1918;stroke-width:.21600001;stroke-linecap:butt;stroke-linejoin:miter;stroke-dasharray:none" d="M-255.163 559.998c-.555-.382-.88-.87-.975-1.462-.898-7.24.915-11.366 5.438-12.376 2.93-.814 5.642-.114 8.137 2.1 1.995 2.248 3.746 3.26 5.25 3.038 1.692-.226 3.342-1.577 4.95-4.05 2.167-2.433 5.305-2.495 9.413-.188 3.864 2.718 5.152 6.356 3.862 10.913-.622 1.726-1.122 2.313-1.5 1.762-.519-.163-.769-.8-.75-1.912-.715-2.856-2.765-3.919-6.15-3.188-2.118.843-3.106 2.731-2.962 5.663.115 1.845-.222 2.757-1.013 2.737-1.118.198-1.667-.765-1.65-2.887.044-3.325-1.169-5.175-3.637-5.55-2.594-.391-4.232.721-4.913 3.337a32.133 32.133 0 0 0-.412 3.45c-.107 1.289-.645 1.851-1.613 1.688-.856-.068-1.205-1.018-1.05-2.85.283-2.875-.73-4.65-3.037-5.325-2.155-.649-4.005-.149-5.55 1.5-.482.634-.644 1.572-.488 2.812-.083.978-.533 1.24-1.35.788z"/><path style="fill:#fff;fill-rule:evenodd;stroke:#1b1918;stroke-width:.21600001;stroke-linecap:butt;stroke-linejoin:miter;stroke-dasharray:none" d="M-253.868 563.654c2.358 3.984 9.663 9.826 13.5 12.3 2.047 1.32 3.938 1.113 5.887-.375 1.18-.9 15.37-11.195 12.094-12.694-1.02-.55-1.701-1.612-2.044-3.187-.24-1.535-.817-2.206-1.724-1.988-1.025.248-1.435 1.22-1.237 2.888.514 2.267-.183 3.683-1.557 4.65-3.288 2.313-7.416.112-7.537-4.2.03-2.082-.295-3.095-1.144-3.263-.874-.025-1.026.655-.919 2.794.114 2.27-.715 4.076-3.225 5.175-2.03.809-3.931.133-5.7-2.025-.52-.97-.664-2.313-.43-4.031.211-1.389-.309-1.981-1.557-2.044-2.34-.118.208 3.633-3.019 4.538-1.388.389-1.87.806-1.387 1.462zM-238.75 580.626v9.407h2.78v-9.407z"/></svg>