<svg xmlns="http://www.w3.org/2000/svg" height="841.89" width="595.276"><path style="fill:#ffa5ba;fill-rule:evenodd;stroke:#1b1918;stroke-width:.21600001;stroke-linecap:butt;stroke-linejoin:miter;stroke-dasharray:none" d="M-292.882 589.38c-.292.521-.47 1.04-.665 1.452 0 0 .27-.472.665-1.452 1.505 1.263 3.616 1.746 6.344 1.643 6.057-.227 10.125-4.699 9.982-10.674-.06-5.71-3.533-6.513-8.262-6.203.142-3.153 2.544-3.876 2.141-4.97-.883-1.15-1.893-1.4-3.03-.749-1.2.845-2.138 2.261-2.813 4.25-.408 1.419-1.43 1.604-1.391.922.282-4.918 4.354-16.946 1.482-16.915-2.872.031 2.52-6.771-4.263-8.695-1.522-.431-3.283-.468-5.25-.218-.853.069-.822-.452.093-1.563 3.574-3.538 2.125-6.544-.968-4.719-1.642 1.163-2.631 2.83-2.97 5-.092 1.321-.483 1.774-1.172 1.36-.94-.407-1.82-.548-2.64-.422-.649.064-1.357-.353-2.125-1.25-2.155-2.703-6.412-1.708-8.5.532-1.495 1.813-1.638-2.5-1.547-2.922.301-1.599.046-2.669-.625-2.757-4.031-.775-3.369 4.81-2.219 7.132 2.055 3.003-3.556.38-4.75 5.532-.25.98-.25 1.969 0 2.97a6.445 6.445 0 0 0-1.233.023l6.17 33.945 26.882.2z"/><path style="fill:#fff;fill-rule:evenodd;stroke:#1b1918;stroke-width:.21600001;stroke-linecap:butt;stroke-linejoin:miter;stroke-dasharray:none" d="M-293.57 572.899c-.069-1.108-.464-1.41-1.186-.907-8.06 5.1-15.53 5.173-24.188.032-1.014-.87-1.431-.9-1.25-.094l2.969 16.219 20.375-.188c.8-1.2.855-2.404.093-3.562-2.043-3.108-1.283-8.085 2.25-9.75.788-.372 1.047-1.053.938-1.75z"/><path style="fill:#fff;fill-rule:evenodd;stroke:#1b1918;stroke-width:.21600001;stroke-linecap:butt;stroke-linejoin:miter;stroke-dasharray:none" d="M-291.756 560.055h-30.407c3.611 17.636 29.002 15.652 30.407 0zM-318.257 553.306c-3.683-.5-5.295 3.817-2.312 3.687l12.313.031c2.39-1.87.502-8.635-3.375-8.687-1.504-.02-2.46 1.234-2.875 3.468-.057 1.132-.714 1.799-1.97 2-.682-.067-1.276-.234-1.78-.5zM-303.756 552.383c.4 1.442.44 3 .125 4.672l10.625-.03c1.903-5.618-2.959-8.058-5.719-3.97-.661.98-1.106 1.246-1.937.47a17.603 17.603 0 0 1-2.032-2.157c-.992-.795-1.346-.457-1.062 1.015zM-281.615 585.087c1.734-3.302 2.026-5.604.875-6.906-1.96-1.315-3.46-1.065-4.5.75-.755 1.514-1.932 1.514-3.53 0-1.382-1.403-2.757-1.747-4.126-1.031-1.53 1.494-1.478 3.797.157 6.906 1.44 1.86 2.878 2.517 4.312 1.969 1.256-.43 2.392-.42 3.406.031 1.565.39 2.7-.183 3.406-1.719z"/></svg>