<svg xmlns="http://www.w3.org/2000/svg" height="841.89" width="595.276"><path style="fill:#ffa5ba;fill-rule:evenodd" d="M1595.103 348.995c.968-.081 1.554.252 1.758 1l-5.227 29.045h-22.5c-3.595-18.731-5.264-28.075-5.269-28.17-.057-1.078.417-1.695 1.675-1.875h29.563z"/><path style="fill:#fff;fill-rule:evenodd" d="M1567.634 353.108c0 5.633 5.554 10.199 12.406 10.199s12.406-4.566 12.406-10.199a1491.45 1491.45 0 0 0-24.812 0z"/><path style="fill:#fff;fill-rule:evenodd" d="M1568.978 363.088c7.75 4.17 15.062 4.13 21.937-.125l-2.562 13.156h-16.526l-2.85-13.031z"/><path style="fill:#ffa5ba;fill-rule:evenodd" d="m1580.275 348.088.088-.003.088.003v-.007c5.035-.215 3.581-3.368 4.302-5.767.736-1.404 2.046-1.85 3.313-.594 1.978 1.96 5.722.097 6.531-2.625.45-1.515-.154-3.139-1.72-4.844 1.323-1.767 1.547-3.502.673-5.204h-26.372c-.874 1.702-.65 3.437.672 5.204-1.566 1.706-2.17 3.33-1.72 4.844.81 2.722 4.554 4.585 6.532 2.625 1.267-1.256 2.576-.81 3.312.594.722 2.399-.732 5.552 4.303 5.767v.007z"/><path style="fill:#fff;fill-rule:evenodd" d="M1580.637 344.692v.013a1.127 1.127 0 0 1-.142.002 1.345 1.345 0 0 1-.141-.002v-.013c-.824-.148-1.262-1.284-1.07-3.362.057-.628.025-1.175-.094-1.64-.17-.403-.51-.647-1.015-.734a4.867 4.867 0 0 1-2.89-1.25c-.506-.62-1.167-.76-1.985-.423-.522.272-.98.626-1.375 1.063-.736.818-1.335.969-1.797.453-.4-.472-.196-1.066.61-1.781 1.158-.864 1.6-1.56 1.325-2.086-.063-.411-.287-.755-.672-1.032-.585-.412-.663-.87-.235-1.375.362-.264.894-.384 1.594-.36l7.667.016h.106l7.667-.015c.7-.025 1.232.095 1.594.36.428.503.35.962-.235 1.374-.385.277-.609.621-.672 1.032-.275.526.167 1.222 1.326 2.086.805.715 1.008 1.31.61 1.781-.463.516-1.062.365-1.798-.453a4.865 4.865 0 0 0-1.375-1.063c-.818-.337-1.48-.196-1.984.422a4.867 4.867 0 0 1-2.89 1.25c-.507.088-.846.332-1.016.735-.12.465-.15 1.012-.094 1.64.192 2.076-.2 3.212-1.014 3.362z"/></svg>