<svg xmlns="http://www.w3.org/2000/svg" height="841.89" width="595.276"><path style="fill:#ffa5ba;fill-rule:evenodd" d="M-624.745 304.372c-.292.521-.47 1.04-.665 1.452 0 0 .27-.473.665-1.452 1.505 1.263 3.616 1.746 6.344 1.643 6.057-.227 10.125-4.699 9.982-10.674-.06-5.71-3.533-6.513-8.262-6.204.142-3.152 2.544-3.875 2.141-4.968-.883-1.152-1.893-1.402-3.03-.75-1.2.844-2.138 2.26-2.814 4.25-.407 1.418-1.429 1.604-1.39.922.282-4.918 4.354-16.947 1.482-16.915-2.872.03 2.52-6.772-4.263-8.695-1.522-.432-3.283-.468-5.25-.219-.853.07-.822-.451.093-1.562 3.574-3.539 2.125-6.544-.969-4.72-1.64 1.163-2.63 2.83-2.968 5-.094 1.322-.484 1.775-1.173 1.36-.94-.407-1.82-.547-2.64-.421-.649.063-1.357-.353-2.126-1.25-2.154-2.704-6.412-1.708-8.499.532-1.495 1.812-1.638-2.5-1.548-2.922.302-1.6.047-2.67-.624-2.757-4.032-.775-3.369 4.81-2.219 7.132 2.055 3.002-3.557.379-4.75 5.532-.251.979-.251 1.968 0 2.969a6.445 6.445 0 0 0-1.234.024l6.171 33.945 26.881.2z"/><path style="fill:#fff;fill-rule:evenodd" d="M-625.432 287.89c-.07-1.107-.465-1.408-1.187-.906-8.061 5.1-15.53 5.172-24.188.032-1.015-.87-1.431-.9-1.25-.094l2.968 16.219 20.376-.188c.8-1.201.855-2.404.093-3.562-2.043-3.108-1.283-8.085 2.25-9.75.788-.372 1.047-1.053.938-1.75z"/><path style="fill:#fff;fill-rule:evenodd" d="M-623.62 275.046h-30.406c3.611 17.637 29.002 15.653 30.406 0zM-650.12 268.297c-3.683-.499-5.295 3.818-2.312 3.688l12.313.031c2.389-1.87.502-8.635-3.376-8.688-1.503-.02-2.46 1.235-2.874 3.47-.057 1.131-.714 1.798-1.97 2-.683-.068-1.276-.235-1.78-.5zM-635.62 267.375c.4 1.442.442 3 .126 4.672l10.625-.031c1.903-5.617-2.96-8.057-5.719-3.969-.662.98-1.106 1.246-1.938.47a17.613 17.613 0 0 1-2.03-2.157c-.993-.796-1.347-.457-1.063 1.015zM-613.478 300.08c1.734-3.303 2.026-5.605.875-6.907-1.96-1.315-3.46-1.065-4.5.75-.755 1.514-1.932 1.514-3.53 0-1.382-1.403-2.757-1.747-4.126-1.031-1.53 1.494-1.478 3.796.156 6.906 1.442 1.86 2.879 2.517 4.313 1.969 1.256-.43 2.391-.42 3.406.03 1.565.39 2.7-.183 3.406-1.718z"/></svg>